<?xml version="1.0" encoding="utf-8"?>
<!-- Generator: Adobe Illustrator 26.5.0, SVG Export Plug-In . SVG Version: 6.00 Build 0)  -->
<svg version="1.1" id="Capa_1" xmlns="http://www.w3.org/2000/svg" xmlns:xlink="http://www.w3.org/1999/xlink" x="0px" y="0px"
	 viewBox="0 0 579 579" style="enable-background:new 0 0 579 579;" xml:space="preserve">
<style type="text/css">
	.st0{fill:#D61D1D;}
	.st1{fill:#FFFFFF;}
</style>
<g>
	<circle class="st0" cx="289.5" cy="289.5" r="267"/>
	<g>
		<path class="st1" d="M193,269.5h-46.2V181h116.4v-28.4h50.4V181h117v88.6h-48.8v-44.3H193V269.5z M432.2,369.8H313.6v37.2
			c0,24.2-5.5,36.8-23.6,44c-17.8,6.8-40.4,7.8-67.2,7.8c-2.9-14.2-12.3-35.6-20-48.5c18.4,1,44.9,1.3,51.7,1c6.8,0,8.7-1.3,8.7-5.8
			v-35.6H146.8v-44.6h116.4v-18.4h15.2c7.8-5.5,15.2-12,22-18.7h-97v-42.3h136.4l10.7-2.3l30.1,23.3c-17.1,20-39.4,42-64.6,58.5
			h116.4V369.8z"/>
	</g>
</g>
</svg>
