<?xml version="1.0" encoding="utf-8"?>
<!-- Generator: Adobe Illustrator 26.5.0, SVG Export Plug-In . SVG Version: 6.00 Build 0)  -->
<svg version="1.1" id="Capa_1" xmlns="http://www.w3.org/2000/svg" xmlns:xlink="http://www.w3.org/1999/xlink" x="0px" y="0px"
	 viewBox="0 0 579 579" style="enable-background:new 0 0 579 579;" xml:space="preserve">
<style type="text/css">
	.st0{fill:#FFFFFF;}
	.st1{fill:#D61D1D;}
</style>
<path class="st0" d="M501.8,579H77.1C34.5,579,0,544.4,0,501.8V77.1C0,34.5,34.5,0,77.1,0h424.7C544.4,0,579,34.5,579,77.1v424.7
	C579,544.4,544.4,579,501.8,579z"/>
<g>
	<circle class="st1" cx="289.5" cy="289.5" r="218.2"/>
	<g>
		<path class="st0" d="M210.6,273.2h-37.8v-72.4H268v-23.2h41.2v23.2h95.6v72.4h-39.9V237H210.6V273.2z M406.1,355.1h-96.9v30.4
			c0,19.8-4.5,30.1-19.3,35.9c-14.5,5.5-33,6.3-54.9,6.3c-2.4-11.6-10-29.1-16.4-39.6c15.1,0.8,36.7,1.1,42.3,0.8
			c5.5,0,7.1-1.1,7.1-4.8v-29.1h-95.1v-36.5H268v-15.1h12.4c6.3-4.5,12.4-9.8,18-15.3h-79.2v-34.6h111.5l8.7-1.8l24.6,19
			c-14,16.4-32.2,34.3-52.8,47.8h95.1V355.1z"/>
	</g>
</g>
</svg>
