<?xml version="1.0" encoding="utf-8"?>
<!-- Generator: Adobe Illustrator 26.5.0, SVG Export Plug-In . SVG Version: 6.00 Build 0)  -->
<svg version="1.1" id="Capa_1" xmlns="http://www.w3.org/2000/svg" xmlns:xlink="http://www.w3.org/1999/xlink" x="0px" y="0px"
	 viewBox="0 0 448.5 448.6" style="enable-background:new 0 0 448.5 448.6;" xml:space="preserve">
<style type="text/css">
	.st0{fill:#0C0A09;}
	.st1{fill:#FAFAF9;}
</style>
<path class="st0" d="M408.5,448h-368c-22.1,0-40-17.9-40-40V40c0-22.1,17.9-40,40-40h368c22.1,0,40,17.9,40,40v368
	C448.5,430.1,430.6,448,408.5,448z"/>
<g>
	<path class="st1" d="M250.2,352.2c-34.2,0-66.4-13.3-90.6-37.6C135.4,290.4,122,258.2,122,224c0-34.2,13.3-66.4,37.6-90.6
		c24.2-24.2,56.4-37.6,90.6-37.6s66.4,13.3,90.6,37.6l33.7-33.7c-31.8-31.8-75.8-51.5-124.3-51.5c-97.1,0-175.8,78.7-175.8,175.8
		s78.7,175.8,175.8,175.8c48.5,0,92.5-19.7,124.3-51.5l-33.7-33.7C316.7,338.9,284.5,352.2,250.2,352.2z"/>
	<path class="st1" d="M250.2,264.3c-22.2,0-40.3-18.1-40.3-40.3s18.1-40.3,40.3-40.3c11.1,0,21.2,4.5,28.5,11.8l33.7-33.7
		c-15.9-15.9-37.9-25.7-62.2-25.7c-48.5,0-87.9,39.4-87.9,87.9s39.4,87.9,87.9,87.9c24.3,0,46.3-9.8,62.2-25.7l-33.7-33.7
		C271.4,259.8,261.3,264.3,250.2,264.3z"/>
</g>
</svg>
