<?xml version="1.0" encoding="utf-8"?>
<!-- Generator: Adobe Illustrator 26.5.0, SVG Export Plug-In . SVG Version: 6.00 Build 0)  -->
<svg version="1.1" id="Capa_1" xmlns="http://www.w3.org/2000/svg" xmlns:xlink="http://www.w3.org/1999/xlink" x="0px" y="0px"
	 viewBox="0 0 382.6 106.2" style="enable-background:new 0 0 382.6 106.2;" xml:space="preserve">
<style type="text/css">
	.st0{fill:#F5F5F4;}
	.st1{fill:#43A064;}
</style>
<g>
	<path class="st0" d="M100.9,21.6c-1.4-1.5-3-2.3-5.1-2.3c-1.9,0-3.6,0.8-5.1,2.3c-1.4,1.5-2.1,3.4-2.1,5.5c0,2.2,0.7,4,2.1,5.5
		c1.4,1.5,3.1,2.2,5.1,2.2c2.1,0,3.8-0.7,5.1-2.2c1.3-1.5,2-3.3,2-5.5C102.9,25,102.2,23.2,100.9,21.6z M98.1,43.8
		c-0.5,0.4-1.3,0.9-2.5,1.4c-1.1,0.5-2.7,0.9-4.8,1.2c-0.3,0-0.6,0.1-0.9,0.1c-1.9,0.2-4.2,0.3-6.8,0.3v6.8c0.9-0.1,2-0.1,3.4-0.2
		c1.4-0.1,2.7-0.1,3.9-0.2c-0.1,1.5-0.2,3-0.3,4.4C90,59.1,90,60.4,90,61.6v13.5l6.5-10c1-1.5,2.1-3,3.2-4.4l3.1-3.7V43.8H98.1z"/>
	<g>
		<path class="st1" d="M99.8,67.2l-6.9,10.7c-1,1.6-2,3-3,4.3c-0.6,0.8-1.2,1.6-1.8,2.3c-1.4,1.8-2.9,3.1-4.5,4
			c-1.5,0.9-3.4,1.4-5.5,1.5c-2.1-0.1-4-0.6-5.5-1.5c-1.5-0.9-3-2.2-4.5-4c-1.5-1.8-3-4-4.8-6.6l-6.9-10.7c-1.3-2-2.7-3.8-4.2-5.4
			c-1.5-1.6-3.1-2.9-4.7-3.7c5.6-1.5,10-3.5,13.3-6c3.3-2.6,5.8-5.5,7.3-8.9c1.5-3.3,2.4-6.8,2.4-10.3c0.1-6.2-1.3-11.1-4-15
			c-2.8-3.8-6.9-6.6-12.3-8.4c-5.4-1.8-12.1-2.7-19.8-2.7c-5.6,0-11.3,0-17,0.1c-5.7,0-11.4,0.1-17,0.2v8.5c1.1-0.1,2.6-0.2,4.5-0.2
			c1.9,0,3.5-0.1,5-0.2c-0.1,1.1-0.2,2.7-0.3,4.6c-0.1,2-0.2,4-0.2,6.2v51.2c0,3.2-0.2,5.8-0.8,7.6C8.2,86.7,7.3,88,6,88.8
			c-1.3,0.7-3.1,1.1-5.5,1.2V97h35v-8.5c-0.8,0-1.8,0-3.1,0.1c-1.3,0-2.6,0.1-3.9,0.1c-1.3,0-2.5,0.1-3.4,0.2
			c0.2-1.1,0.3-2.7,0.4-4.6c0.1-2,0.1-4.2,0.1-6.6V60.3c1.3,0.1,2.5,0.1,3.6,0.1c1.1,0,2.4,0,3.7-0.1c1.2,1.1,2.3,2.5,3.3,4.1
			c1,1.6,2,3.3,3.1,5.1l9.2,14.8c1.7,2.8,3.4,5.3,4.9,7.4c1.6,2.1,3.3,3.9,5.1,5.4h39c2-0.7,3.5-2.1,4.3-4.3c0.2-0.6,0.4-1.3,0.5-2
			c0.2-1.5,0.3-3,0.4-4.5c0-1.6,0.1-2.9,0.1-4V63.3C101.7,64.5,100.8,65.8,99.8,67.2z M32.3,52.6c-1.2,0-2.4,0-3.5-0.1
			c-1.1-0.1-2.2-0.2-3.2-0.2V26.4c0-3,0.2-5.4,0.7-7.1c0.5-1.8,1.3-3,2.6-3.7c1.3-0.7,3-1,5.3-1c2.2,0,4.5,0.2,6.7,0.7
			c2.3,0.5,4.4,1.3,6.3,2.6c1.9,1.3,3.5,3.1,4.6,5.5c1.1,2.4,1.7,5.5,1.7,9.4c0,4.5-0.8,8.3-2.4,11.2c-1.6,2.9-3.9,5.1-7.1,6.4
			C41.1,51.8,37.1,52.5,32.3,52.6z"/>
	</g>
	<path class="st0" d="M136.3,98.7c-4.7,0-9-1-12.9-3.1c-3.9-2.1-7.1-5.1-9.4-9.1c-2.3-4-3.5-8.8-3.5-14.4c0-3.8,0.7-7.5,2-10.9
		c1.3-3.4,3.2-6.5,5.6-9.2c2.4-2.7,5.3-4.8,8.6-6.4c3.3-1.6,7-2.3,11.1-2.3c4.2,0,7.8,0.6,10.7,1.9c2.9,1.3,5.1,3,6.7,5.1
		c1.5,2.1,2.3,4.4,2.3,6.7c0,1.9-0.5,3.5-1.6,4.9c-1.1,1.4-2.6,2.1-4.6,2.2c-2.4,0.1-4-0.6-5-2c-0.9-1.4-1.4-2.8-1.4-4
		c0-0.7,0.1-1.4,0.3-2.2c0.2-0.8,0.6-1.5,1-2.2c-0.5-1.3-1.3-2.2-2.4-2.8c-1.1-0.6-2.3-1-3.4-1.2c-1.2-0.2-2.1-0.3-2.8-0.2
		c-3.8,0.1-7,1.9-9.5,5.2c-2.5,3.3-3.8,8.2-3.8,14.6c0,3.8,0.5,7.4,1.6,10.6c1.1,3.2,2.7,5.8,5,7.8c2.2,2,5.1,3,8.6,3.1
		c3.1,0.1,6-0.7,8.9-2.2c2.9-1.6,5.2-3.6,7-6.1l4.2,3.9c-2.3,3.3-4.8,5.8-7.4,7.6c-2.6,1.8-5.3,3.1-8,3.8
		C141.4,98.3,138.8,98.7,136.3,98.7z"/>
	<path class="st0" d="M195.8,97c-0.2-1-0.3-1.9-0.4-2.7c0-0.7-0.1-1.6-0.2-2.6c-2.4,2.4-4.9,4.1-7.6,5.2c-2.7,1.1-5.4,1.7-8.3,1.7
		c-4.7,0-8.4-1.3-10.9-3.9c-2.5-2.6-3.8-5.7-3.8-9.5c0-3.3,0.9-6.2,2.7-8.5c1.8-2.3,4.2-4.2,7.1-5.7c2.9-1.5,6.2-2.6,9.7-3.4
		c3.5-0.8,7.1-1.2,10.5-1.3v-5.7c0-2-0.2-3.9-0.7-5.6c-0.5-1.7-1.3-3.1-2.5-4.1c-1.2-1-2.9-1.5-5.2-1.5c-1.5,0.1-3.1,0.4-4.6,1
		c-1.6,0.6-2.8,1.5-3.7,2.8c0.6,0.6,0.9,1.3,1,2c0.1,0.7,0.2,1.4,0.2,1.9c0,1.3-0.5,2.6-1.5,3.9c-1,1.4-2.5,2-4.7,1.9
		c-1.9-0.1-3.3-0.7-4.3-2c-1-1.3-1.5-2.7-1.5-4.5c0-2.6,1-5,2.9-6.9c1.9-2,4.5-3.5,7.8-4.7c3.3-1.1,6.9-1.7,11-1.7
		c6,0,10.6,1.6,13.8,4.7c3.2,3.1,4.8,8.1,4.7,15c0,2.4,0,4.6,0,6.6c0,2,0,4-0.1,5.9c0,2-0.1,4.2-0.1,6.6c0,1,0,2.3-0.1,3.9
		c-0.1,1.6-0.2,3.1-0.3,4.6c1.3-0.1,2.5-0.2,3.8-0.3c1.3,0,2.3-0.1,3.2-0.2V97H195.8z M194.7,72.5c-2.1,0.1-4.1,0.5-6.2,1
		c-2,0.5-3.8,1.2-5.4,2.1c-1.6,0.9-2.9,2-3.8,3.4c-0.9,1.4-1.4,2.9-1.3,4.6c0.1,2.2,0.8,3.7,2.1,4.7c1.3,1,2.9,1.5,4.6,1.5
		c2,0,3.8-0.4,5.5-1.3c1.6-0.8,3.1-1.9,4.5-3.3c0-0.7,0-1.4,0-2.2c0-0.8,0-1.5,0-2.3c0-1,0-2.2,0-3.7
		C194.7,75.8,194.7,74.2,194.7,72.5z"/>
	<path class="st0" d="M220.2,91.5c2,0,3.4-0.4,4.3-1.3c0.8-0.9,1.4-2.1,1.6-3.7c0.2-1.6,0.3-3.4,0.3-5.4V61.5c0-1.3,0-2.6,0.1-4
		c0.1-1.4,0.2-2.8,0.3-4.3c-1.2,0.1-2.5,0.1-3.9,0.2c-1.4,0-2.5,0.1-3.4,0.2v-6.7h3.9c2.8,0,5.1-0.3,7-1c1.9-0.7,3.2-1.3,4-2h4.4
		c0.1,0.8,0.2,2.2,0.3,4c0.1,1.8,0.1,3.6,0.1,5.4c1.6-2.1,3.3-3.9,5-5.4c1.7-1.5,3.5-2.6,5.4-3.4c1.8-0.8,3.7-1.2,5.7-1.2
		c2.2,0,4.2,0.6,5.9,1.9c1.7,1.3,2.6,3.3,2.6,6c0,0.9-0.2,1.9-0.7,2.9c-0.5,1-1.1,1.9-2.1,2.6c-0.9,0.7-2.2,1-3.8,1
		c-1.5,0-2.8-0.5-4.1-1.4c-1.3-0.9-2-2.5-2-4.5c-1.5-0.1-3,0.5-4.5,1.6c-1.6,1.1-3,2.5-4.2,4.1c-1.3,1.6-2.2,3.2-2.9,4.9l0.1,19.8
		c0,1.1,0,2.5-0.1,4c-0.1,1.6-0.2,3.1-0.3,4.5c1.1-0.1,2.3-0.2,3.5-0.3c1.3,0,2.3-0.1,3.1-0.1V97h-25.3V91.5z"/>
	<path class="st0" d="M289.5,98.7c-4.2,0-7.9-1.1-11.2-3.2c-3.3-2.2-5.8-5.2-7.7-9.2c-1.8-4-2.8-8.6-2.8-14c0-5.6,1.1-10.6,3.3-15
		c2.2-4.4,5.3-7.8,9.2-10.3c3.9-2.5,8.5-3.8,13.6-3.8c2,0,3.9,0.2,5.7,0.7c1.8,0.5,3.3,1,4.6,1.5v-9.3c0-1,0-2.3,0.1-3.9
		c0-1.5,0.1-3.1,0.3-4.6c-1.1,0.1-2.4,0.1-3.8,0.2c-1.4,0.1-2.6,0.1-3.6,0.2v-6.8c3.2,0,5.8-0.2,7.8-0.5c2-0.3,3.6-0.7,4.7-1.2
		c1.1-0.5,2-0.9,2.5-1.4h4.8v63.8c0,1,0,2.3-0.1,3.9c-0.1,1.6-0.2,3.1-0.3,4.6c1.2-0.1,2.4-0.2,3.7-0.3c1.3,0,2.4-0.1,3.3-0.2V97
		h-18.1c-0.1-0.8-0.3-1.7-0.4-2.6c-0.1-0.9-0.2-1.7-0.4-2.5c-2.2,2.3-4.5,4-7.1,5.1C295.1,98.2,292.4,98.7,289.5,98.7z M294.4,90.7
		c1.9,0,3.8-0.5,5.6-1.6c1.8-1.1,3.3-2.4,4.4-4c-0.1-1-0.1-2-0.1-3c0-1,0-2,0-3.1l0.1-26.7c-1-0.8-2.4-1.5-4-1.9
		c-1.6-0.5-3.2-0.7-4.9-0.7c-3.3,0.1-5.9,1.1-8,3.1c-2.1,2-3.5,4.6-4.5,7.8c-0.9,3.2-1.4,6.7-1.3,10.4c0,3.4,0.5,6.6,1.4,9.6
		c0.9,3,2.3,5.4,4.1,7.3C289.1,89.7,291.5,90.7,294.4,90.7z"/>
	<path class="st0" d="M356.5,98.7c-4.9,0-9.4-1.1-13.5-3.3c-4-2.2-7.2-5.3-9.5-9.3c-2.3-4-3.5-8.7-3.5-14c0-5.6,1.2-10.6,3.5-15
		c2.4-4.4,5.5-7.8,9.5-10.2c4-2.4,8.4-3.7,13.2-3.7c4.9,0,9.4,1.1,13.3,3.3c4,2.2,7.1,5.3,9.4,9.3c2.3,4,3.5,8.7,3.5,14.1
		c0,5.7-1.1,10.7-3.4,15.1c-2.3,4.3-5.4,7.7-9.3,10.1C366,97.5,361.5,98.7,356.5,98.7z M357.1,92.3c3.1,0,5.5-1,7.2-2.9
		c1.7-1.9,2.8-4.4,3.5-7.5c0.7-3,1-6.1,1-9.3c0-2.7-0.2-5.5-0.7-8.2c-0.5-2.8-1.2-5.3-2.1-7.6c-1-2.3-2.3-4.1-3.9-5.4
		c-1.6-1.4-3.5-2-5.8-2c-3.1,0.1-5.5,1.1-7.3,3c-1.8,1.9-3.1,4.4-3.9,7.4c-0.8,3-1.2,6.2-1.2,9.5c0,3.8,0.5,7.4,1.4,11
		c0.9,3.6,2.3,6.5,4.3,8.8C351.4,91.3,353.9,92.4,357.1,92.3z"/>
</g>
</svg>
