<?xml version="1.0" encoding="utf-8"?>
<!-- Generator: Adobe Illustrator 26.5.0, SVG Export Plug-In . SVG Version: 6.00 Build 0)  -->
<svg version="1.1" id="Capa_1" xmlns="http://www.w3.org/2000/svg" xmlns:xlink="http://www.w3.org/1999/xlink" x="0px" y="0px"
	 viewBox="0 0 128 128" style="enable-background:new 0 0 128 128;" xml:space="preserve">
<g>
	<g>
		<path d="M128,68c-0.2,1.7-0.5,3.4-0.7,5.2c-0.8,6.1-2.6,11.9-5.1,17.5c-0.8,1.7-2,2.3-3.5,1.7c-1.4-0.6-1.9-2.1-1.1-3.7
			c2.6-5.7,4.3-11.6,5-17.8c1-9,0-17.9-3-26.4c-1.9-5.5-4.6-10.6-8-15.3c-0.5-0.7-0.9-0.8-1.7-0.6c-4.6,1.4-9.4-1.3-10.6-6
			c-1.2-4.6,1.7-9.4,6.4-10.4c4.6-1,9.2,2,10.1,6.6c0.4,1.8,0.2,3.5-0.6,5.1c-0.4,0.8-0.3,1.3,0.2,2c4.9,6.6,8.4,13.8,10.4,21.7
			c1,3.9,1.4,7.9,2,11.9c0.1,0.5,0.1,1,0.2,1.5C128,63.3,128,65.7,128,68z M111,20.5c0-1.9-1.6-3.5-3.5-3.5c-1.9,0-3.5,1.6-3.5,3.5
			c0,1.9,1.6,3.5,3.5,3.5C109.4,24,111,22.4,111,20.5z"/>
		<path d="M61,128c-2-0.2-4.1-0.3-6-0.7c-4-0.8-8-1.8-12-2.8c-1.6-0.4-2.4-1.9-1.9-3.3c0.4-1.3,1.8-1.9,3.4-1.5
			c4.2,1,8.4,2.1,12.6,2.8c6.4,1,12.9,0.5,19.2-0.8c8.3-1.8,15.8-5.2,22.6-10.1c0.6-0.5,0.7-0.8,0.5-1.5c-1.1-3.6,0.2-7.4,3.3-9.6
			c2.8-2,6.9-1.9,9.6,0.1c3.1,2.3,4.3,6.1,3.1,9.8c-1.1,3.3-4.4,5.7-8,5.6c-1.1,0-2.3-0.3-3.4-0.8c-0.9-0.4-1.4-0.3-2.1,0.3
			c-5,3.7-10.4,6.6-16.2,8.7c-5.6,2-11.4,3.3-17.4,3.7c-0.5,0-0.9,0.1-1.3,0.2C65,128,63,128,61,128z M107.4,111
			c1.9,0,3.5-1.6,3.5-3.5c0-1.9-1.6-3.5-3.5-3.5c-1.9,0-3.5,1.5-3.5,3.4C104,109.4,105.5,111,107.4,111z"/>
		<path d="M43.1,28.1c3.4-1.3,6.4-2.5,9.5-3.7c0.3-0.1,0.7-0.6,0.7-1c0.1-1.2,0-2.5,0-3.7c0-2.1,1-3.1,3.1-3.1c5.1,0,10.2,0,15.2,0
			c2.1,0,3,1,3.1,3.1c0,1.2-0.1,2.5,0,3.7c0,0.4,0.4,0.9,0.8,1c3,1.2,6.1,2.4,9.5,3.7c0.7-0.8,1.7-1.9,2.8-3c1.6-1.6,2.8-1.6,4.4,0
			c3.6,3.6,7.1,7.1,10.7,10.7c1.6,1.6,1.6,2.8,0,4.4c-1.1,1.1-2.2,2.1-3,2.9c1.3,3.4,2.5,6.5,3.8,9.6c0.1,0.3,0.6,0.6,0.9,0.7
			c1.3,0.1,2.6,0,3.9,0c2,0,3,1,3,3c0,5.1,0,10.2,0,15.4c0,1.9-0.9,2.9-2.9,3c-1.3,0-2.6,0-3.9,0c-0.4,0-0.9,0.3-1,0.6
			c-1.3,3.1-2.5,6.2-3.8,9.6c0.9,0.8,2,1.8,3,2.9c1.5,1.5,1.5,2.8,0,4.3c-3.6,3.6-7.2,7.3-10.9,10.9c-1.4,1.4-2.7,1.4-4.1,0
			c-0.6-0.5-1.1-1.1-1.7-1.7c-0.5-0.5-1-1.1-1.4-1.5c-3.5,1.4-6.8,2.8-10.2,4.2c0,1.3,0,2.8,0,4.3c0,2.2-1,3.1-3.1,3.1
			c-5,0-10.1,0-15.1,0c-2.1,0-3.1-1-3.1-3.1c0-1.5,0.4-3.3-0.3-4.4c-0.7-1-2.6-1-4-1.6c-1.9-0.8-3.8-1.7-5.9-2.7
			c-0.9,1-1.9,2.1-3,3.2c-1.6,1.6-2.9,1.6-4.4,0c-3.6-3.6-7.2-7.2-10.8-10.8c-1.5-1.5-1.5-2.8,0-4.2c1.1-1.1,2.2-2.1,3.1-3
			c-1.3-3.4-2.5-6.5-3.8-9.6c-0.1-0.3-0.6-0.6-1-0.6c-1.2-0.1-2.5,0-3.7,0c-2.1,0-3.1-1-3.1-3.1c0-5.1,0-10.2,0-15.2
			c0-2.1,1-3,3.1-3.1c1.2,0,2.5,0,3.7,0c0.3,0,0.9-0.3,1-0.6c1.3-3.1,2.5-6.2,3.8-9.6c-0.9-0.8-2-1.9-3-2.9c-1.5-1.5-1.5-2.8,0-4.3
			c3.6-3.6,7.2-7.2,10.8-10.8c1.5-1.5,2.8-1.5,4.3,0C41.2,26.1,42.2,27.2,43.1,28.1z M106.4,58.3c-1.4,0-2.7,0-4,0
			c-1.8,0-2.6-0.6-3-2.3c-1-4-2.5-7.8-4.7-11.4c-0.9-1.5-0.7-2.5,0.5-3.7c1-1,2-1.8,2.8-2.5c-2.9-2.9-5.5-5.5-8.2-8.2
			C88.9,31,88,32,87.1,32.9c-1.2,1.2-2.2,1.4-3.6,0.5c-3.6-2.2-7.4-3.8-11.5-4.8c-1.7-0.4-2.3-1.2-2.3-3.1c0-1.3,0-2.6,0-4
			c-3.9,0-7.6,0-11.4,0c0,1.4,0,2.7,0,4c0,1.8-0.6,2.6-2.3,3c-4,1-7.8,2.5-11.4,4.7c-1.5,0.9-2.5,0.7-3.7-0.5c-1-1-1.9-2-2.7-2.8
			c-2.8,2.8-5.4,5.4-8.1,8.2c0.8,0.8,1.7,1.6,2.6,2.5c1.5,1.5,1.6,2.3,0.5,4.1c-2.1,3.4-3.6,7.1-4.5,11c-0.5,1.9-1.2,2.5-3.2,2.5
			c-1.3,0-2.6,0-3.9,0c0,3.9,0,7.6,0,11.4c1.4,0,2.7,0,4,0c1.8,0,2.6,0.6,3,2.3c1,4,2.5,7.8,4.7,11.4c0.9,1.5,0.8,2.4-0.5,3.7
			c-1,1-2,1.9-2.8,2.7c2.7,2.8,5.4,5.4,8.1,8.1C39.1,97,40,96,41,95.1c1.2-1.2,2.2-1.3,3.6-0.5c3.6,2.2,7.4,3.8,11.5,4.8
			c1.7,0.4,2.2,1.2,2.3,3c0,1.4,0,2.7,0,4.1c3.9,0,7.6,0,11.3,0c0-0.2,0.1-0.3,0.1-0.3c0-1.2,0-2.4,0-3.6c0-1.9,0.6-2.7,2.4-3.1
			c4-0.9,7.7-2.5,11.1-4.6c1.7-1,2.6-0.9,4,0.5c0.9,0.9,1.8,1.9,2.6,2.8c2.8-2.8,5.4-5.4,8.1-8.1c0,0,0-0.1-0.1-0.1
			c-0.8-0.9-1.7-1.7-2.5-2.6c-1.4-1.4-1.5-2.3-0.5-4c2.1-3.5,3.7-7.2,4.6-11.1c0.4-1.8,1.2-2.4,3.1-2.4c1.3,0,2.6,0,4,0
			C106.4,65.8,106.4,62.1,106.4,58.3z"/>
		<path d="M16.9,99.7c5.4-2,9.5,0.7,11.1,3.9c1.7,3.5,1,7.7-2,10.2c-3.1,2.6-7.5,2.8-10.6,0.4c-3.2-2.5-4.4-6.7-2.7-10.3
			c0.4-0.8,0.3-1.3-0.2-2C7.8,95.5,4.2,88.3,2.2,80.4c-3.7-14.1-2.7-28,2.9-41.4c0.7-1.6,2-2.2,3.4-1.7c1.3,0.6,1.9,2,1.2,3.6
			c-2,4.7-3.4,9.6-4.1,14.6c-1.8,13.2,0.5,25.7,7,37.3C13.9,95.2,15.5,97.4,16.9,99.7z M20.6,104c-2,0-3.6,1.6-3.5,3.6
			c0,1.9,1.7,3.5,3.6,3.4c1.9,0,3.4-1.7,3.4-3.6C24,105.6,22.4,104,20.6,104z"/>
		<path d="M28.3,17c1.2,3.4,0.9,6.4-1.4,9.1c-2.8,3.2-7.8,3.8-11.2,1.4c-3.7-2.6-4.7-7.4-2.4-11.3c2.1-3.6,6.9-5.2,10.8-3.3
			c0.8,0.4,1.2,0.3,1.9-0.2c6.6-4.9,13.8-8.4,21.8-10.5c7.6-2,15.3-2.8,23.1-1.7c3.9,0.5,7.8,1.4,11.6,2.3c1.6,0.4,2.3,1.5,2.1,2.9
			c-0.2,1.4-1.5,2.3-3.1,1.9c-2.9-0.6-5.8-1.5-8.8-1.9C56.4,3.4,41.7,7.3,28.3,17z M20.6,24c1.9,0,3.5-1.6,3.4-3.5
			c0-1.9-1.6-3.5-3.5-3.4c-1.9,0-3.5,1.6-3.4,3.5C17.1,22.5,18.7,24,20.6,24z"/>
		<path d="M38,118.5c0,1.4-1,2.5-2.4,2.5c-1.4,0-2.6-1.1-2.6-2.5c0-1.3,1.1-2.5,2.4-2.5C36.8,116,38,117.1,38,118.5z"/>
		<path d="M92.8,8.4c0,1.4-1,2.5-2.4,2.5c-1.3,0-2.6-1.2-2.6-2.5c0-1.3,1.1-2.5,2.4-2.5C91.6,5.9,92.8,7,92.8,8.4z"/>
		<path d="M64,85.6c-8.9-0.1-17-5.7-20-13.9c-3.2-8.7-0.9-18,6-23.9c5.8-4.9,12.4-6.3,19.7-4.5c1.6,0.4,2.4,1.6,2.1,3
			c-0.3,1.5-1.6,2.2-3.3,1.8c-4.1-1.1-8.1-0.7-11.9,1.1c-6.5,3.2-10.1,10.3-8.8,17.7c1.1,6.8,6.9,12.4,13.8,13.3
			c10.2,1.4,18.9-6.2,18.9-16.5c0-1.6-0.5-3.1-0.7-4.7c-0.3-1.8,0.5-3.1,2-3.3c1.3-0.2,2.4,0.5,2.8,1.9c3.4,10.5-2.4,22.5-12.7,26.3
			c-1.3,0.5-2.7,0.9-4.1,1.1C66.5,85.4,65.2,85.4,64,85.6z"/>
		<path d="M77.7,53.3c-1.4,0-2.7-1.2-2.7-2.6c-0.1-1.4,1.1-2.6,2.5-2.6c1.3,0,2.6,1.3,2.6,2.7C80.1,52.1,79,53.2,77.7,53.3z"/>
	</g>
</g>
</svg>
