<?xml version="1.0" encoding="utf-8"?>
<!-- Generator: Adobe Illustrator 26.5.0, SVG Export Plug-In . SVG Version: 6.00 Build 0)  -->
<svg version="1.1" id="Capa_1" xmlns="http://www.w3.org/2000/svg" xmlns:xlink="http://www.w3.org/1999/xlink" x="0px" y="0px"
	 viewBox="0 0 128 128" style="enable-background:new 0 0 128 128;" xml:space="preserve">
<g>
	<g>
		<path d="M69.5,120.5c1.6,0,3.1,0,4.6,0c2.6,0,5.4,0,8,0c1.6,0,2.2,0.7,2.2,2.4c0,0.9,0,1.8,0,2.9c0,1.6-0.7,2.2-2.2,2.2
			c-10.3,0-20.7,0-31,0c-1.7,0-3.5,0-5.2,0c-1.4,0-2.1-0.7-2.2-2.2c0-1,0-2,0-3c0-1.4,0.8-2.2,2.2-2.2c3.9,0,7.8,0,11.8,0
			c0.3,0,0.5,0,0.9,0c0-0.4,0-0.5,0-0.8c0-3.1,0-6.3,0-9.4c0-0.7-0.1-0.9-0.9-0.9c-16.7,0-33.5,0-50.1,0c-0.3,0-0.5,0-0.8,0
			c-1.4,0-2.2-1.2-1.7-2.6c0.8-2.1,1.6-4.1,2.5-6.1c1.7-4.3,3.4-8.5,5.1-12.8c3.5-8.9,7.2-17.9,10.7-26.8c0.5-1.2,0.9-1.6,2.2-1.6
			c25.8,0,51.4,0,77.1,0c1.2,0,1.7,0.4,2.1,1.4c6,15.2,12,30.5,18.2,45.6c0.7,1.6-0.3,2.9-2,2.9c-16.7,0-33.5,0-50.1,0
			c-0.3,0-0.5,0-0.9,0c-0.1,0-0.4,0.3-0.4,0.4C69.5,113.4,69.5,116.9,69.5,120.5z M81.2,105.6c0-0.1,0-0.3,0-0.3
			c-0.7-5.2-1.4-10.3-2.1-15.6c-0.1-0.5-0.3-0.7-0.8-0.7c-9.7,0-19.2,0-28.9,0c-0.5,0-0.7,0.1-0.7,0.7c-0.4,3.4-0.9,6.8-1.4,10.3
			c-0.3,1.8-0.5,3.7-0.8,5.5C58.2,105.6,69.7,105.6,81.2,105.6z M82.8,89.3c0,0.1,0,0.3,0,0.3c0.7,5.1,1.4,10.2,2.1,15.3
			c0.1,0.8,0.4,0.9,1.2,0.9c10.6,0,21.2,0,31.8,0c0.3,0,0.4,0,0.8,0c-0.1-0.3-0.1-0.5-0.3-0.8c-2-5-3.9-9.9-5.9-14.9
			c-0.3-0.5-0.5-0.8-1.2-0.8c-9.2,0-18.4,0-27.6,0C83.3,89.3,83.2,89.3,82.8,89.3z M45.1,89.3c-0.3,0-0.5,0-0.7,0
			c-9.3,0-18.6,0-27.8,0c-0.5,0-0.7,0.1-0.9,0.7c-2,5.1-4.1,10.2-6,15.2c-0.1,0.1-0.3,0.4-0.3,0.5c11.2,0,22.4,0,33.5,0
			C43.7,100.3,44.4,94.8,45.1,89.3z M49.5,85.5c9.7,0,19.4,0,29.2,0c-0.5-3.5-0.9-6.9-1.4-10.3c-0.1-0.5-0.3-0.7-0.8-0.7
			c-3.8,0-7.5,0-11.2,0c-4.4,0-9,0-13.5,0c-0.4,0-0.7-0.1-0.8,0.5C50.4,78.4,49.9,82,49.5,85.5z M47.1,74.5c-0.3,0-0.4,0-0.5,0
			c-8.1,0-16.2,0-24.2,0c-0.5,0-0.7,0.3-0.8,0.5c-1.3,3.3-2.6,6.7-3.9,9.9c-0.1,0.1-0.1,0.4-0.1,0.5c9.4,0,18.7,0,28.1,0
			C46.2,81.8,46.6,78.2,47.1,74.5z M82.3,85.5c9.4,0,18.8,0,28.2,0c-1.4-3.5-2.7-6.9-4.1-10.3c-0.3-0.5-0.5-0.7-1-0.7
			c-7.8,0-15.8,0-23.7,0c-0.3,0-0.5,0-0.9,0C81.2,78.2,81.8,81.8,82.3,85.5z M75.5,63.3c-7.7,0-15.4,0-23.1,0c-0.4,2.5-0.7,5-1,7.5
			c8.4,0,16.7,0,25.1,0C76.1,68.2,75.9,65.8,75.5,63.3z M48.7,63.3c-0.3,0-0.4,0-0.4,0c-7.1,0-14.3,0-21.3,0c-0.4,0-0.7,0.1-0.8,0.5
			c-0.8,1.8-1.4,3.7-2.2,5.5c-0.1,0.5-0.4,0.9-0.5,1.4c8.1,0,16.2,0,24.3,0C48,68.2,48.3,65.8,48.7,63.3z M104.5,70.7
			c-0.1-0.3-0.1-0.4-0.3-0.7c-0.8-2.1-1.7-4.1-2.5-6.1c-0.3-0.5-0.4-0.7-1-0.7c-6.9,0-13.9,0-20.8,0c-0.3,0-0.5,0-0.8,0
			c0.4,2.6,0.7,5.1,1,7.5C88.4,70.7,96.4,70.7,104.5,70.7z M62.1,110.3c0,3.1,0,6.1,0,9.2c1.2,0,2.4,0,3.7,0c0-3.1,0-6.1,0-9.2
			C64.5,110.3,63.3,110.3,62.1,110.3z"/>
		<path d="M64,17.9c15.7,0,29.2,10.5,33.1,25.6c0.7,2.7,1,5.5,1,8.2c0,1.3-0.8,2.1-2.1,2.1c-0.9,0-1.6-0.8-1.6-2
			c0-2.4-0.3-4.7-0.9-7.1c-2.6-10.1-8.6-17.3-18.3-21.1c-10.3-4.1-20.3-2.9-29.3,3.7c-7.1,5-11.1,11.9-12.3,20.5
			c-0.1,1.3-0.3,2.6-0.3,3.9c-0.1,1.3-0.8,2.1-1.8,2.1c-1.2,0-1.8-0.8-1.8-2.1c0.4-12,5.5-21.4,15.3-28.2
			C50.9,19.7,57.2,17.9,64,17.9z"/>
		<path d="M74.7,2.1c-0.4,2.1-0.8,4.2-1,6.1c-0.1,0.9-0.4,2-0.5,2.9c-0.3,1.2-1.2,2-2.2,1.7c-1-0.1-1.7-1.2-1.4-2.4
			c0.5-2.9,1-5.9,1.6-8.8C71.2,0.7,72,0,72.9,0c0.9,0,1.7,0.5,2,1.3C74.6,1.7,74.7,2,74.7,2.1z"/>
		<path d="M26.7,37.7c0,1.4-1.2,2.4-2.4,2c-3-1-6-2.1-9-3.3C14.4,36,14,34.9,14.4,34c0.4-0.9,1.3-1.4,2.4-1c2.9,1,5.9,2.1,8.8,3.1
			C26.3,36.5,26.7,37,26.7,37.7z"/>
		<path d="M103.2,39.7c-0.9,0-1.7-0.7-2-1.4c-0.3-0.9,0.3-1.8,1-2.1c1.3-0.5,2.6-0.9,3.8-1.4c1.6-0.5,3.1-1.2,4.7-1.7
			c1.2-0.4,2.2,0,2.6,1c0.4,1-0.1,2-1.3,2.4c-2.7,1-5.6,2.1-8.4,3C103.6,39.6,103.3,39.7,103.2,39.7z"/>
		<path d="M58.6,11.1c0,1-0.7,1.8-1.6,2c-0.9,0.1-1.8-0.4-2.1-1.4c-0.3-1.4-0.5-2.7-0.8-4.2c-0.3-1.6-0.5-3-0.9-4.6
			c-0.3-1.2,0.1-2.1,1-2.5c1.2-0.5,2.4,0.1,2.6,1.4c0.4,2.4,0.8,4.7,1.3,7.1C58.4,9.5,58.5,10.3,58.6,11.1z"/>
		<path d="M104.8,19.7c-0.1,0.3-0.4,0.8-0.7,1.2c-2.4,2-4.6,3.9-6.9,5.9c-0.9,0.8-2.1,0.7-2.7-0.1c-0.7-0.8-0.5-2,0.4-2.6
			c2.4-2,4.6-3.9,6.9-5.9c0.7-0.5,1.3-0.7,2.1-0.3C104.4,18.2,104.8,18.7,104.8,19.7z"/>
		<path d="M42.8,17.9c-0.4,0-0.9-0.3-1.2-0.9c-1.6-2.6-3.1-5.4-4.7-8.1c-0.5-0.9-0.1-2,0.7-2.5c0.9-0.5,2-0.3,2.5,0.7
			c1.6,2.6,3.1,5.4,4.6,8C45.5,16.5,44.6,17.9,42.8,17.9z"/>
		<path d="M91.2,8.2c0,0.1-0.1,0.5-0.3,0.8c-1.4,2.6-3,5.2-4.4,7.8c-0.4,0.8-1,1-2,1c-0.8-0.1-1.4-0.7-1.6-1.4c0-0.4,0-0.8,0.1-1.2
			c1.6-2.7,3.1-5.5,4.8-8.2c0.4-0.7,1.3-0.9,2.1-0.7C90.6,6.7,91.2,7.3,91.2,8.2z"/>
		<path d="M25,17.5c0.4,0.3,0.9,0.4,1.3,0.7c2.2,1.8,4.6,3.8,6.8,5.8c0.9,0.8,1,2,0.4,2.7c-0.7,0.8-1.8,0.9-2.7,0.1
			c-2.4-2-4.6-3.8-6.8-5.8c-0.7-0.7-0.9-1.3-0.7-2.1C23.6,18,24.2,17.7,25,17.5z"/>
		<path d="M17.7,54c-1.4,0-2.9,0-4.4,0c-1.2,0-2.1-0.8-2.1-1.8c0-1,0.8-1.8,2.1-1.8c3,0,5.9,0,8.9,0c1.2,0,2,0.8,2,1.8
			s-0.8,1.8-2,1.8C20.7,54,19.3,54,17.7,54z"/>
		<path d="M110.3,50.3c1.4,0,2.9,0,4.4,0c1.2,0,2,0.8,2,1.8c0,1-0.8,1.8-2,1.8c-3,0-6,0-9,0c-1.2,0-2-0.8-2-1.8s0.8-1.8,2-1.8
			C107.3,50.2,108.7,50.3,110.3,50.3z"/>
	</g>
</g>
</svg>
