<?xml version="1.0" encoding="utf-8"?>
<!-- Generator: Adobe Illustrator 26.5.0, SVG Export Plug-In . SVG Version: 6.00 Build 0)  -->
<svg version="1.1" id="Capa_1" xmlns="http://www.w3.org/2000/svg" xmlns:xlink="http://www.w3.org/1999/xlink" x="0px" y="0px"
	 viewBox="0 0 128 128" style="enable-background:new 0 0 128 128;" xml:space="preserve">
<g>
	<g>
		<path d="M18.6,57.8c-2.8,0-5.3,0-7.9,0C4.5,57.8,0,53.4,0,47.2C0,35.1,0,23,0,10.9C0,4.4,4.4,0,10.8,0c35.5,0,71,0,106.5,0
			c6.3,0,10.7,4.4,10.7,10.7c0,12.1,0,24.3,0,36.4c0,6.2-4.5,10.7-10.7,10.7c-2.6,0-5.2,0-7.9,0c0,1.9,0,3.7,0,5.5
			c0,2-0.7,2.7-2.7,2.7c-28.5,0-57,0-85.4,0c-2,0-2.7-0.7-2.7-2.7C18.6,61.6,18.6,59.8,18.6,57.8z M18.6,53.7c0-1.9,0-3.7,0-5.5
			c0-2,0.7-2.7,2.7-2.7c28.5,0,57,0,85.4,0c2,0,2.7,0.7,2.7,2.7c0,1.8,0,3.7,0,5.6c2.8,0,5.3,0,7.9,0c3.9,0,6.5-2.6,6.5-6.6
			c0-12.2,0-24.4,0-36.5c0-3.8-2.6-6.5-6.4-6.5c-35.7,0-71.3,0-107,0c-3.8,0-6.4,2.7-6.4,6.5c0,2.5,0,4.9,0,7.4c0,9.8,0,19.5,0,29.3
			c0,3.5,2.4,6.3,5.8,6.4C12.7,53.8,15.6,53.7,18.6,53.7z M22.8,49.6c0,4.1,0,8.2,0,12.2c27.5,0,55,0,82.4,0c0-4.1,0-8.2,0-12.2
			C77.7,49.6,50.3,49.6,22.8,49.6z"/>
		<path d="M32.2,105.3c3,0,6,0,9,0c0,1.4,0,2.7,0,4.1c-3,0-6,0-9.1,0c2.3,2.2,4.4,4.4,6.7,6.6c-1.2,1.1-2.1,2-3.2,3c-2-2-4-4-6-6
			c-0.6-0.6-1.3-1.3-1.9-1.9c-1.9-1.9-1.9-1.9-4.9-1.6c-0.3,1.8-0.2,3.4,1.4,4.8c2.8,2.5,5.4,5.3,8.1,8c-1,0.9-2,1.8-3.1,2.8
			c-2-2-4.1-4.2-6.5-6.7c0,3.4,0,6.4,0,9.5c-1.4,0-2.7,0-4.1,0c0-3,0-6,0-9c-2.2,2.2-4.3,4.4-6.5,6.5c-1.2-1.3-2.1-2.2-3-3.3
			c1.1-1.1,2.4-2.4,3.7-3.7c1.3-1.3,2.6-2.8,4-4c1.7-1.3,2-2.9,1.6-5c-1.7-0.2-3.2-0.3-4.6,1.3c-2.3,2.6-4.8,4.9-7.3,7.3
			c-0.3,0.3-0.6,0.6-1,0.9c-1-1-1.8-1.9-2.8-2.9c2.2-2.1,4.4-4.3,6.6-6.4c-0.1-0.1-0.1-0.2-0.2-0.3c-3,0-6,0-9.1,0
			c0-1.4,0-2.7,0-4.2c3,0,6,0,9.4,0c-2.5-2.4-4.6-4.5-6.9-6.7c1.1-1.1,2-2,3.2-3.2c0.5,0.6,0.9,1.3,1.5,1.9c2,2.1,4.1,4.1,6.1,6.1
			c2,2,2,2,5,1.8c0.2-1.7,0.4-3.2-1.2-4.6c-2.9-2.6-5.6-5.5-8.4-8.3c1-0.9,2-1.8,3-2.8c2,2.1,4.1,4.4,6.2,6.6
			c0.2-0.1,0.3-0.2,0.5-0.3c0-3,0-6,0-9.1c1.4,0,2.7,0,4.1,0c0,3,0,6,0,9.4c2.4-2.4,4.5-4.6,6.7-6.9c1.1,1.1,1.9,2.1,2.9,3.1
			c-0.2,0.2-0.5,0.5-0.8,0.8c-2.4,2.4-4.7,4.9-7.2,7.2c-1.6,1.4-1.8,3-1.5,4.8c1.9,0.4,3.5,0.1,4.9-1.5c2.5-2.8,5.2-5.3,7.9-8
			c1,1,1.8,2,2.7,3c-2.1,2-4.2,4.1-6.4,6.3C32.1,105.1,32.1,105.2,32.2,105.3z"/>
		<path d="M109.4,119c0,3,0,6,0,9c-1.4,0-2.6,0-4.1,0c0-3,0-6,0-9.1c-0.1,0-0.2-0.1-0.3-0.1c-2.1,2.2-4.2,4.4-6.4,6.7
			c-1.1-1.2-1.9-2.1-3.2-3.4c0.4-0.3,1-0.5,1.5-1c2.2-2.1,4.3-4.3,6.5-6.5c2-2,2-2,1.8-5c-1.7-0.1-3.2-0.3-4.6,1.2
			c-2.6,2.9-5.5,5.6-8.3,8.4c-1-1-1.8-2-2.7-2.9c2.1-2,4.3-4.2,6.5-6.3c-0.1-0.1-0.2-0.3-0.3-0.4c-3,0-6,0-9.1,0c0-1.4,0-2.7,0-4.1
			c3,0,6,0,9.4,0c-2.4-2.4-4.6-4.5-6.9-6.7c1.2-1.1,2.1-2,3.2-2.9c0.2,0.2,0.5,0.4,0.8,0.7c2.4,2.4,4.9,4.7,7.2,7.2
			c1.4,1.6,2.9,1.8,4.8,1.5c0.4-1.9,0.1-3.5-1.5-4.9c-2.8-2.5-5.3-5.2-8-7.9c1-0.9,2-1.8,3-2.7c2,2.1,4.1,4.2,6.3,6.4
			c0.1-0.1,0.2-0.1,0.3-0.2c0-3,0-6,0-9.1c1.5,0,2.8,0,4.2,0c0,3,0,6,0,9.3c2.3-2.4,4.4-4.6,6.5-7c1.2,1.3,2.1,2.3,3,3.4
			c-1.5,1.5-3.2,3.2-4.9,4.9c-1,1-1.9,1.9-2.9,2.9c-1.9,1.9-1.9,1.9-1.6,4.9c1.7,0.2,3.3,0.3,4.7-1.4c2.3-2.6,4.8-4.9,7.3-7.3
			c0.3-0.3,0.6-0.6,1-0.9c1,1,1.9,1.9,2.8,2.9c-2.2,2.2-4.4,4.3-6.8,6.8c3.4,0,6.4,0,9.5,0c0,1.4,0,2.7,0,4.2c-3,0-6,0-9.2,0
			c2.3,2.3,4.5,4.5,6.6,6.6c-1.1,1-2.1,1.9-3.2,2.9c-0.9-0.9-2-2.1-3.1-3.2c-1.5-1.5-3.1-2.9-4.4-4.5c-1.4-1.6-2.9-2.2-5.1-1.7
			c-0.2,1.7-0.3,3.2,1.3,4.6c2.6,2.3,4.9,4.8,7.3,7.3c0.3,0.3,0.6,0.6,0.9,1c-1,0.9-1.9,1.8-2.9,2.7c-2.1-2.1-4.2-4.3-6.3-6.5
			C109.7,118.8,109.6,118.9,109.4,119z"/>
		<path d="M46,68.7c1,1.1,1.9,2,3.1,3.3c-0.8,0.7-1.7,1.3-2.6,2.1c-1.5,1.5-1.4,3,0,4.5c0.6,0.7,1.3,1.3,1.9,2.1
			c1.7,2.4,1.6,5.7-0.3,8.1c-1,1.2-2.1,2.2-3.2,3.4c-1-1-1.9-2-3-3.2c0.8-0.7,1.6-1.4,2.4-2.2c1.5-1.5,1.5-3.1,0-4.6
			c-0.6-0.7-1.3-1.3-1.8-2c-1.6-2.4-1.7-5.5,0-7.9C43.6,71.1,44.8,70,46,68.7z"/>
		<path d="M58.4,68.7c1,1.1,1.9,2,3.1,3.3c-0.6,0.5-1.3,1-1.9,1.6c-2.3,2.2-2.3,3.4-0.1,5.7c0.8,0.8,1.5,1.7,1.9,2.7
			c1.1,2.4,0.8,4.8-0.9,6.9c-0.9,1.2-2.1,2.2-3.2,3.4c-1-1.1-1.9-2-3-3.2c0.6-0.5,1.3-1,1.9-1.6c2.2-2.2,2.2-3.4,0.1-5.6
			c-0.7-0.7-1.4-1.6-1.8-2.5c-1.1-2.3-1-4.6,0.4-6.7C55.8,71.3,57.2,70.1,58.4,68.7z"/>
		<path d="M69.7,92.3c-1-1.1-1.8-2-3.1-3.3c0.6-0.5,1.5-1,2.2-1.7c2-1.9,2-3.4,0-5.3c-2.3-2.3-3.6-4.9-2.2-8c0.9-2,2.6-3.6,4-5.5
			c1.1,1.3,2,2.2,3.1,3.5c-0.6,0.5-1.5,1.2-2.3,1.9c-1.7,1.6-1.6,3.1,0,4.8c0.6,0.6,1.3,1.3,1.8,2c1.6,2.4,1.6,5.6-0.2,7.9
			C72.1,90,70.8,91.1,69.7,92.3z"/>
		<path d="M82.9,68.8c1.2,1.2,2.1,2,3.3,3.2c-0.6,0.5-1.3,1-1.9,1.5C82,75.8,82,77,84.3,79.3c0.7,0.7,1.3,1.5,1.7,2.4
			c1.1,2.3,1,4.6-0.4,6.7c-1,1.4-2.3,2.6-3.5,3.9c-1-1.1-1.9-2-3.2-3.3c0.6-0.5,1.3-0.8,1.8-1.4c2.5-2.5,2.5-3.6,0.1-6.1
			c-2.3-2.4-3.1-5.5-1.6-8.1C80.2,71.8,81.7,70.3,82.9,68.8z"/>
		<path d="M53.7,12.4c14.2,0,28.3,0,42.5,0c2.4,0,3,0.6,3,3c0,2.2,0,4.4,0,6.6c0,2.2-0.7,2.8-2.9,2.8c-23.1,0-46.2,0-69.3,0
			c-5.3,0-10.7,0-16,0c-2,0-2.7-0.7-2.7-2.7c0-2.3,0-4.6,0-7c0-2,0.7-2.7,2.7-2.7C25.2,12.4,39.5,12.4,53.7,12.4z M12.5,20.6
			c27.6,0,55,0,82.5,0c0-1.4,0-2.6,0-4c-27.5,0-55,0-82.5,0C12.5,17.9,12.5,19.2,12.5,20.6z"/>
		<path d="M109.4,37.3c0,1.4,0,2.6,0,4c-30.2,0-60.4,0-90.7,0c0-1.3,0-2.6,0-4C48.9,37.3,79.1,37.3,109.4,37.3z"/>
		<path d="M119.8,16.6c0,4.6-3.8,8.2-8.3,8.2c-4.5,0-8.2-3.7-8.2-8.2c0-4.6,3.7-8.3,8.3-8.3C116.1,8.3,119.8,12,119.8,16.6z
			 M115.6,16.5c0-2.2-1.9-4.1-4.1-4.1c-2.2,0-4.1,1.8-4.1,4.1c0,2.3,1.9,4.2,4.2,4.2C113.8,20.6,115.7,18.7,115.6,16.5z"/>
	</g>
</g>
</svg>
