<?xml version="1.0" encoding="utf-8"?>
<!-- Generator: Adobe Illustrator 26.5.0, SVG Export Plug-In . SVG Version: 6.00 Build 0)  -->
<svg version="1.1" id="Capa_1" xmlns="http://www.w3.org/2000/svg" xmlns:xlink="http://www.w3.org/1999/xlink" x="0px" y="0px"
	 viewBox="0 0 128 128" style="enable-background:new 0 0 128 128;" xml:space="preserve">
<g>
	<g>
		<path d="M123,19.6c-0.3,0.4-0.6,0.8-1,1.2c-2.3,2.1-4.5,4.2-6.8,6.3c-0.8,0.7-1.6,0.9-2.6,0.6c-2.5-0.8-5-1.5-7.5-2.3
			c-0.4-0.1-0.7-0.1-1,0.3c-3,3.1-6.1,6.1-9.2,9.2c-0.1,0.1-0.3,0.3-0.4,0.5c-0.9-0.9-1.7-1.8-2.6-2.7c0.1-0.1,0.2-0.2,0.3-0.4
			c3-3,5.9-6,8.9-8.9c0.3-0.3,0.4-0.5,0.3-0.9c-0.7-2.9-1.4-5.9-2.1-8.8c-0.2-0.8,0-1.5,0.6-2c2.5-2.3,4.9-4.6,7.4-6.8
			c0.3-0.2,0.6-0.4,0.9-0.6c0.3,0,0.6,0,0.9,0c0.2,0.1,0.4,0.2,0.6,0.2c3.1,0.9,6.1,1.8,9.2,2.7c1,0.3,1.5,0.8,1.7,1.8
			c0.3,1.5,0.7,3,1.1,4.5c0.4,1.7,0.8,3.3,1.2,5C123,18.9,123,19.2,123,19.6z M103.2,13.8c0,0.1,0,0.2,0,0.2
			c0.6,2.5,1.2,4.9,1.8,7.4c0,0.2,0.2,0.3,0.4,0.4c2.4,0.7,4.9,1.5,7.3,2.2c0.2,0.1,0.5,0,0.6-0.1c1.9-1.7,3.7-3.4,5.6-5.2
			c0.1-0.1,0.2-0.4,0.2-0.5c-0.6-2.4-1.1-4.9-1.8-7.3c0-0.2-0.3-0.4-0.5-0.5c-2.4-0.7-4.8-1.5-7.2-2.1c-0.2-0.1-0.5,0-0.7,0.2
			c-1.9,1.7-3.7,3.4-5.5,5.1C103.3,13.6,103.3,13.7,103.2,13.8z"/>
		<path d="M21.2,4.3c0.4,0.3,0.9,0.6,1.3,0.9c2.3,2.1,4.6,4.3,6.9,6.4c0.7,0.6,0.9,1.3,0.7,2.2c-0.7,2.9-1.4,5.8-2.1,8.7
			c-0.1,0.4,0,0.6,0.2,0.8c2.9,2.9,5.9,5.9,8.8,8.8c0.2,0.2,0.4,0.3,0.6,0.5c-0.9,0.9-1.8,1.7-2.7,2.5c-0.1,0-0.2-0.2-0.3-0.3
			c-3.1-3.1-6.2-6.2-9.2-9.2c-0.3-0.3-0.5-0.3-0.9-0.2c-2.6,0.8-5.2,1.5-7.7,2.3c-0.9,0.3-1.6,0.1-2.3-0.5c-2.3-2.2-4.6-4.3-7-6.5
			c-0.4-0.4-0.7-0.8-1-1.3c0-0.3,0-0.6,0-0.9c0-0.1,0.1-0.2,0.1-0.3c0.8-3.2,1.5-6.3,2.3-9.5C9.1,8,9.6,7.5,10.4,7.2
			c1.7-0.5,3.4-1,5.2-1.5c1.6-0.5,3.2-1,4.7-1.5C20.6,4.3,20.9,4.3,21.2,4.3z M10.4,18.3c0.1,0.1,0.2,0.3,0.3,0.4
			c1.8,1.7,3.6,3.3,5.4,5c0.3,0.2,0.5,0.3,0.8,0.2c2.4-0.7,4.7-1.4,7.1-2.1c0.4-0.1,0.5-0.3,0.6-0.7c0.5-2.3,1.1-4.6,1.7-7
			c0.1-0.4,0-0.6-0.3-0.8c-1.8-1.6-3.6-3.3-5.3-4.9c-0.3-0.3-0.5-0.3-0.8-0.2c-2.3,0.7-4.5,1.4-6.8,2c-0.5,0.2-0.8,0.4-0.9,0.9
			c-0.1,0.6-0.3,1.1-0.4,1.7C11.3,14.7,10.9,16.4,10.4,18.3z"/>
		<path d="M108.3,120.7c-0.4-0.3-0.9-0.6-1.3-1c-2.3-2.1-4.6-4.2-6.9-6.4c-0.7-0.6-0.9-1.3-0.7-2.2c0.7-2.9,1.4-5.8,2.1-8.7
			c0.1-0.4,0-0.6-0.2-0.8c-2.8-2.8-5.6-5.6-8.4-8.4c-0.2-0.2-0.4-0.3-0.5-0.4c0.9-0.9,1.8-1.8,2.7-2.7c0.1,0.2,0.2,0.4,0.4,0.6
			c2.9,2.9,5.8,5.8,8.6,8.7c0.3,0.3,0.6,0.4,1,0.3c2.6-0.8,5.1-1.5,7.7-2.3c0.9-0.3,1.6-0.1,2.3,0.5c2.4,2.2,4.8,4.4,7.2,6.7
			c0.3,0.3,0.5,0.7,0.8,1.1c0,0.3,0,0.6,0,0.9c0,0.1-0.1,0.2-0.1,0.3c-0.8,3.1-1.5,6.2-2.2,9.4c-0.2,0.9-0.7,1.5-1.6,1.7
			c-1.7,0.5-3.3,1-5,1.5c-1.6,0.5-3.2,1-4.8,1.5C108.9,120.7,108.6,120.7,108.3,120.7z M119.1,106.6c-0.1-0.1-0.2-0.3-0.3-0.4
			c-1.8-1.7-3.6-3.3-5.4-5c-0.3-0.2-0.5-0.3-0.8-0.2c-2.4,0.7-4.7,1.4-7.1,2.1c-0.3,0.1-0.5,0.2-0.5,0.6c-0.6,2.4-1.1,4.8-1.7,7.2
			c0,0.2,0,0.5,0.2,0.6c1.8,1.7,3.7,3.4,5.5,5.1c0.1,0.1,0.4,0.2,0.6,0.1c2.5-0.7,4.9-1.4,7.3-2.2c0.2-0.1,0.4-0.3,0.4-0.4
			c0.2-0.8,0.4-1.7,0.6-2.5C118.4,110,118.7,108.4,119.1,106.6z"/>
		<path d="M6.6,105.5c0.3-0.4,0.6-0.9,1-1.3c2.3-2.2,4.7-4.3,7-6.5c0.6-0.6,1.3-0.8,2.2-0.5c2.6,0.8,5.2,1.5,7.8,2.3
			c0.4,0.1,0.6,0.1,0.9-0.2c2.9-2.9,5.8-5.9,8.7-8.8c0.1-0.1,0.3-0.3,0.4-0.4c0.8,0.9,1.7,1.7,2.5,2.6c-0.1,0.1-0.2,0.2-0.3,0.4
			c-2.8,2.8-5.6,5.7-8.5,8.5c-0.3,0.3-0.4,0.5-0.3,0.9c0.7,2.9,1.4,5.9,2.1,8.8c0.2,0.8,0,1.5-0.6,2c-2.5,2.3-4.9,4.6-7.4,6.8
			c-0.3,0.2-0.6,0.4-0.9,0.6c-0.3,0-0.6,0-0.9,0c-0.2-0.1-0.4-0.2-0.6-0.2c-3.1-0.9-6.1-1.8-9.2-2.7c-0.9-0.3-1.5-0.8-1.7-1.8
			c-0.4-1.7-0.8-3.4-1.2-5.1c-0.4-1.5-0.8-3-1.1-4.5C6.6,106.1,6.6,105.8,6.6,105.5z M26.4,111.1c0-0.1,0-0.2,0-0.2
			c-0.6-2.4-1.2-4.9-1.8-7.3c0-0.2-0.3-0.4-0.4-0.4c-2.4-0.7-4.9-1.5-7.3-2.2c-0.2-0.1-0.5,0-0.6,0.1c-1.9,1.7-3.7,3.4-5.6,5.1
			c-0.1,0.1-0.2,0.4-0.2,0.6c0.6,2.4,1.1,4.8,1.7,7.2c0,0.2,0.3,0.4,0.4,0.5c2.4,0.7,4.9,1.5,7.3,2.2c0.2,0.1,0.5,0,0.6-0.1
			c1.9-1.7,3.7-3.4,5.6-5.1C26.2,111.3,26.3,111.2,26.4,111.1z"/>
		<path d="M90,77.3c0.8,0.8,1.5,1.5,2.3,2.2c2.5,2.3,2,5.8,0.2,7.8c-1.1,1.2-2.2,2.3-3.3,3.3c-2,1.8-5.4,2.2-7.7-0.2
			c-0.7-0.8-1.5-1.5-2.2-2.2c-0.9,0.4-1.8,0.9-2.7,1.3c-1.2,0.5-2.4,0.9-3.6,1.3c-0.4,0.1-0.5,0.3-0.5,0.7c0,0.9,0,1.8,0,2.7
			c0,3.2-2.4,5.6-5.6,5.6c-1.7,0-3.5,0.1-5.2-0.1c-2.6-0.3-4.5-2.6-4.6-5.3c0-1.1,0-2.2,0-3.3c-2.3-1-4.5-1.9-6.9-2.8
			c-0.6,0.6-1.4,1.3-2.1,2.1c-2.3,2.5-5.8,2-7.8,0.2c-1.2-1.1-2.3-2.2-3.3-3.3c-2-2.2-1.9-5.5,0.2-7.6c0.8-0.8,1.6-1.5,2.3-2.2
			c-0.7-1.7-1.4-3.4-2.1-5c-0.2-0.4-0.3-0.7-0.4-1.1c-0.1-0.7-0.4-0.8-1.1-0.8c-1.2,0-2.4,0.1-3.6-0.1c-2.5-0.4-4.4-2.7-4.4-5.3
			c0-1.4,0-2.9,0-4.3c0-3.1,2.4-5.5,5.5-5.6c0.9,0,1.9,0,2.8,0c0.3,0,0.5-0.1,0.6-0.4c0.6-2.2,1.5-4.3,2.7-6.3
			c-0.8-0.8-1.5-1.5-2.3-2.3c-2-2.1-2.3-5.2-0.4-7.4c1.2-1.4,2.4-2.6,3.8-3.8c2.4-2,5.4-1.8,7.6,0.4c0.7,0.7,1.5,1.4,2.2,2.2
			c1-0.5,2.1-1,3.1-1.5c1-0.4,2.1-0.8,3.1-1.1c0.4-0.1,0.5-0.3,0.5-0.7c0-0.9,0-1.8,0-2.7c0-3.1,2.4-5.5,5.6-5.5c1.4,0,2.8,0,4.3,0
			c3,0,5.4,2.4,5.5,5.5c0,1.1,0,2.2,0,3.2c2.3,1,4.5,1.9,6.9,2.9c0.6-0.6,1.4-1.4,2.1-2.1c2.3-2.5,5.8-2,7.8-0.2
			c1.2,1.1,2.3,2.2,3.4,3.4c2,2.2,1.8,5.4-0.2,7.5c-0.8,0.8-1.6,1.6-2.2,2.2c0.8,2,1.6,3.8,2.3,5.7c0.4,1.1,0.4,1.1,1.6,1.1
			c1.1,0,2.2,0,3.2,0.1c2.5,0.4,4.3,2.7,4.3,5.2c0,1.4,0,2.8,0,4.3c0,3.2-2.4,5.6-5.6,5.6c-0.9,0-1.9,0-2.8,0
			c-0.2,0-0.4,0.2-0.5,0.3C92.1,73.1,91.2,75.2,90,77.3z M93.9,66.9c0.7,0,1.4,0,2.2,0c1.2,0,2-0.8,2-2c0-1.3,0-2.7,0-4
			c0-1.2-0.8-2-2-2c-1.5,0-2.9,0-4.4,0c-1.2,0-1.8-0.5-2.1-1.6c-0.7-2.8-1.7-5.4-3.2-7.8c-0.7-1.1-0.6-1.8,0.3-2.7
			c1-1.1,2.1-2.1,3.1-3.1c0.7-0.7,0.7-1.8,0.1-2.5c-1-1.1-2.1-2.1-3.1-3.1c-0.9-0.8-1.9-0.7-2.7,0.1c-1,1-2,2-3.1,3.1
			c-0.8,0.8-1.6,0.9-2.6,0.3c-2.4-1.5-5.1-2.6-7.9-3.3c-1.2-0.3-1.6-0.9-1.7-2.1c0-1.5,0-2.9,0-4.4c0-1.2-0.8-2-2-2
			c-1.3,0-2.7,0-4,0c-1.3,0-2,0.8-2,2c0,1.5,0,2.9,0,4.4c0,1.1-0.5,1.8-1.6,2c-2.8,0.7-5.5,1.8-7.9,3.3c-1,0.6-1.8,0.5-2.6-0.3
			c-1-1-2-2-2.9-2.9c-1.1-1.1-2-1.1-3.1,0c-0.9,0.9-1.8,1.8-2.7,2.7c-0.8,0.8-0.8,2,0,2.8c1,1,2.1,2,3.1,3.1
			c0.8,0.8,0.9,1.6,0.3,2.6c-1.5,2.4-2.6,5-3.3,7.8c-0.3,1.2-0.9,1.7-2.2,1.7c-1.5,0-2.9,0-4.4,0c-1.1,0-1.9,0.8-1.9,1.9
			c0,1.4,0,2.7,0,4.1c0,1.2,0.8,2,2,2c1.4,0,2.8,0,4.3,0c1.4,0,1.9,0.4,2.3,1.8c0.6,2.8,1.7,5.3,3.2,7.7c0.7,1.1,0.6,1.8-0.3,2.7
			c-1,1-2.1,2.1-3.1,3.1C39.1,83,39,84,39.7,84.8c1,1.1,2.1,2.2,3.2,3.2c0.8,0.8,1.9,0.7,2.7-0.1c1-1,2-2,3.1-3.1
			c0.9-0.9,1.6-1,2.6-0.3c2.4,1.5,5,2.6,7.8,3.2c1.2,0.3,1.7,0.9,1.7,2.2c0,1.4,0,2.8,0,4.3c0,1.3,0.8,2,2,2c1.3,0,2.7,0,4,0
			c1.2,0,2-0.8,2-2c0-1.5,0-2.9,0-4.4c0-1.2,0.5-1.8,1.6-2.1c2.8-0.7,5.4-1.7,7.8-3.3c1-0.6,1.8-0.6,2.7,0.3c1,1,2.1,2,3.1,3
			c0.8,0.8,1.9,0.9,2.7,0.1c1.1-1,2.1-2,3.1-3.1c0.8-0.9,0.7-1.8-0.1-2.7c-1.1-1.1-2.1-2.1-3.2-3.2c-0.7-0.7-0.9-1.6-0.3-2.4
			c1.6-2.5,2.7-5.2,3.4-8.1c0.2-1,0.9-1.5,2-1.5C92.3,66.9,93.1,66.9,93.9,66.9z"/>
		<path d="M112.1,62.8c0,0.3,0,0.6,0,0.8c-0.1,0.9-1,1.6-1.9,1.5c-0.9-0.1-1.7-0.8-1.7-1.7c0-0.4,0-0.8,0-1.2c0-1,0.8-1.8,1.8-1.8
			c1,0,1.8,0.8,1.8,1.8C112.1,62.5,112.1,62.7,112.1,62.8C112.1,62.8,112.1,62.8,112.1,62.8z"/>
		<path d="M76,108.5c-1.2,0-1.9-0.6-2-1.5c-0.2-0.8,0.3-1.7,1.1-2c0.5-0.2,1.1-0.3,1.6-0.4c0.8-0.1,1.6,0.5,1.9,1.3
			c0.2,0.8-0.1,1.8-0.9,2.1C77,108.2,76.4,108.4,76,108.5z"/>
		<path d="M41.9,103.8c-0.8-0.2-1.7-0.6-2.3-1.5c-0.4-0.7-0.3-1.5,0.2-2.1c0.5-0.6,1.4-0.8,2.1-0.4c0.4,0.2,0.8,0.4,1.2,0.7
			c0.7,0.5,0.9,1.3,0.6,2.1C43.6,103.3,42.9,103.8,41.9,103.8z"/>
		<path d="M108.7,77c-1.3,0-2.2-1.1-1.9-2.3c0.1-0.4,0.2-0.8,0.3-1.1c0.3-0.9,1.2-1.4,2.1-1.2c0.9,0.2,1.5,1.1,1.4,2
			c-0.1,0.5-0.2,1.1-0.5,1.6C109.9,76.6,109.3,76.9,108.7,77z"/>
		<path d="M20.6,71.7c0,0,0.1,0,0.1,0c1.1,0.1,1.8,1.1,2,2.7c0.1,0.9-0.6,1.7-1.5,1.9c-0.8,0.1-1.6-0.2-1.9-0.9
			c-0.2-0.6-0.4-1.2-0.5-1.8C18.8,72.5,19.6,71.7,20.6,71.7z"/>
		<path d="M110.7,51.1c0,1.1-0.6,1.9-1.4,2.1c-0.8,0.2-1.7-0.2-2-0.9c-0.2-0.6-0.4-1.2-0.5-1.9c-0.1-0.8,0.5-1.5,1.3-1.7
			c0.8-0.2,1.7,0.1,2.1,0.8C110.5,50,110.6,50.7,110.7,51.1z"/>
		<path d="M25.7,37.2c1.4,0,2.2,1.4,1.7,2.5c-0.2,0.4-0.4,0.8-0.7,1.2c-0.5,0.8-1.6,0.9-2.4,0.5c-0.8-0.5-1.1-1.5-0.7-2.3
			c0.2-0.4,0.4-0.8,0.7-1.1C24.7,37.5,25.2,37.2,25.7,37.2z"/>
		<path d="M22.8,50.2c-0.1,0.3-0.2,1-0.5,1.6c-0.4,0.8-1.4,1.1-2.2,0.8c-0.8-0.3-1.3-1.2-1.1-2.1c0.1-0.4,0.2-0.8,0.4-1.3
			c0.3-0.8,1.2-1.3,2.1-1.1C22.3,48.3,22.8,49.1,22.8,50.2z"/>
		<path d="M21.2,62.2c0,0.3,0,0.6-0.1,0.9c-0.2,0.9-1.1,1.4-2,1.3c-0.8-0.1-1.5-0.8-1.6-1.7c0-0.4,0-0.7,0-1.1c0-1,0.8-1.8,1.8-1.8
			c1,0,1.8,0.8,1.8,1.8C21.1,61.8,21.1,62,21.2,62.2C21.1,62.2,21.1,62.2,21.2,62.2z"/>
		<path d="M41.9,25c-0.7,0-1.4-0.5-1.7-1.2c-0.3-0.7-0.1-1.5,0.5-2c0.4-0.3,0.9-0.6,1.4-0.8c0.7-0.3,1.5,0,2,0.6
			c0.5,0.6,0.5,1.4,0.2,2.1C43.9,24.2,42.6,25,41.9,25z"/>
		<path d="M85.6,23c0-1,0.8-1.8,1.7-1.8c1,0,1.9,0.5,2.5,1.4c0.4,0.6,0.3,1.5-0.2,2.1c-0.5,0.5-1.3,0.8-2,0.5
			c-0.5-0.2-1-0.4-1.4-0.8c-0.4-0.3-0.5-0.9-0.8-1.3C85.5,23.1,85.5,23,85.6,23z"/>
		<path d="M53.5,16.5c1,0,1.7,0.5,1.9,1.2c0.3,0.7,0.1,1.5-0.4,2c-0.8,0.6-1.7,0.9-2.7,0.6c-0.7-0.2-1.2-0.8-1.3-1.6
			C51,18,51.3,17.3,52,17C52.5,16.7,53.2,16.6,53.5,16.5z"/>
		<path d="M65.1,15.2c0.8-0.1,1.5,0.1,1.9,0.8c0.5,0.8,0.4,1.7-0.3,2.4c-0.6,0.6-2.8,0.6-3.4,0c-0.5-0.6-0.7-1.2-0.5-1.9
			c0.2-0.7,0.8-1.1,1.5-1.2C64.7,15.2,64.9,15.2,65.1,15.2z"/>
		<path d="M64.4,109.8c-1.6,0.2-2.4-1-2.2-2c0,0,0,0,0-0.1c0.1-1.2,1.4-1.9,3-1.6c1,0.2,1.7,1.2,1.4,2.3
			C66.4,109.4,65.7,109.8,64.4,109.8z"/>
		<path d="M89.3,101.9c0.2,1.3-2.3,2.8-3.5,2.1c-1.2-0.7-1.3-2.4-0.1-3.1c0.3-0.2,0.7-0.4,1-0.6C87.9,99.7,89.3,100.6,89.3,101.9z"
			/>
		<path d="M54.8,106.5c0,1-0.9,1.9-1.9,1.8c-0.5-0.1-1.1-0.2-1.6-0.4c-0.8-0.4-1.2-1.3-0.9-2.2c0.3-0.9,1.1-1.4,2-1.2
			c0.4,0.1,0.8,0.2,1.2,0.4C54.4,105.1,54.8,105.7,54.8,106.5z"/>
		<path d="M23.1,84.8c0.1-1,0.4-1.6,1.1-1.9c0.7-0.3,1.4-0.3,1.9,0.3c0.4,0.5,0.8,1.1,1,1.8c0.3,0.8-0.3,1.7-1,2
			c-0.8,0.3-1.7,0.1-2.2-0.6C23.6,85.7,23.3,85.1,23.1,84.8z"/>
		<path d="M104,83.4c1.4,0.1,2.3,1.4,1.8,2.6c-0.1,0.4-0.3,0.7-0.6,1c-0.5,0.8-1.6,1-2.4,0.6c-0.8-0.5-1.2-1.5-0.7-2.4
			c0.2-0.4,0.4-0.8,0.7-1.1C103.1,83.8,103.6,83.6,104,83.4z"/>
		<path d="M76.4,16.7c1.4,0.2,2.3,0.5,2.6,1.6c0.3,1.2-0.8,2.4-2,2.2c-0.4-0.1-0.8-0.2-1.2-0.3c-0.8-0.3-1.3-1.2-1.1-2
			C74.7,17.3,75.5,16.7,76.4,16.7z"/>
		<path d="M106.4,40.2c0,1.4-1.3,2.3-2.5,1.9c-0.9-0.3-1.7-1.8-1.5-2.8c0.3-1.2,1.7-1.8,2.7-1.1C105.9,38.7,106.2,39.5,106.4,40.2z"
			/>
		<path d="M111.2,14.3c1,0,1.8,0.8,1.8,1.8c0,1-0.8,1.9-1.8,1.8c-1,0-1.8-0.8-1.8-1.8C109.4,15.1,110.2,14.3,111.2,14.3z"/>
		<path d="M18.4,17.9c-1,0-1.8-0.8-1.8-1.8c0-1,0.8-1.8,1.8-1.8c1,0,1.8,0.8,1.8,1.8C20.2,17.1,19.4,17.9,18.4,17.9z"/>
		<path d="M113,108.9c0,1-0.8,1.8-1.8,1.8c-1,0-1.8-0.8-1.8-1.9c0-1,0.8-1.8,1.8-1.8C112.2,107.1,113,107.9,113,108.9z"/>
		<path d="M18.4,110.7c-1,0-1.8-0.8-1.8-1.8c0-1,0.9-1.8,1.9-1.8c1,0,1.8,0.9,1.8,1.9C20.2,109.9,19.4,110.7,18.4,110.7z"/>
		<path d="M50.7,62.4c0,7.4,5.8,13.6,13.2,14.1c1,0.1,2,0,2.9-0.1c1.2-0.1,2.1,0.5,2.3,1.6c0.2,1-0.5,1.9-1.7,2.1
			c-8.7,1.3-17.4-4.1-19.7-13.1C45,56.9,51.5,46.9,61.7,45c9.5-1.7,18.7,4.7,20.5,14.2c0.7,3.9,0.2,7.7-1.6,11.3
			C80.1,71.6,79,72,78,71.5c-0.8-0.4-1.3-1.5-0.7-2.7c3.5-7,0.8-15.2-6.1-18.9c-8.4-4.5-19,0.9-20.4,10.4
			C50.8,61,50.8,61.7,50.7,62.4z"/>
		<path d="M73.9,77c-1,0-1.8-0.8-1.8-1.8c0-1,0.8-1.8,1.8-1.8c1,0,1.8,0.8,1.8,1.8C75.7,76.2,74.9,77,73.9,77z"/>
	</g>
</g>
</svg>
