<?xml version="1.0" encoding="utf-8"?>
<!-- Generator: Adobe Illustrator 26.5.0, SVG Export Plug-In . SVG Version: 6.00 Build 0)  -->
<svg version="1.1" id="Capa_1" xmlns="http://www.w3.org/2000/svg" xmlns:xlink="http://www.w3.org/1999/xlink" x="0px" y="0px"
	 viewBox="0 0 128 44.7" style="enable-background:new 0 0 128 44.7;" xml:space="preserve">
<style type="text/css">
	.st0{fill:#172554;}
	.st1{fill:#EA9421;}
	.st2{fill:#111827;}
</style>
<g>
	<g>
		<g>
			<path class="st0" d="M13.2,13.5V4.9h4.2v21.8h-4.2V17H5.3v9.7H1.1V4.9h4.2v8.6H13.2z"/>
			<path class="st0" d="M59.4,26.7h-5.1L49,17.9h-0.1v8.8h-4.2V4.9h5.8c4.3,0,7.3,1.9,7.3,6.6c0,2.8-1.5,5.6-4.5,6L59.4,26.7z
				 M48.9,15h0.5c2.3,0,4-0.7,4-3.4c0-2.7-1.7-3.2-4-3.2h-0.6V15z"/>
			<path class="st0" d="M65,26.7h-4.2V4.9H65V26.7z"/>
			<path class="st0" d="M82.5,23v3.7H66.7l9.6-18.1h-8.1V4.9h14.9L73.5,23H82.5z"/>
			<path class="st0" d="M108.1,4.4h3.1l11.5,15.2h0.1V4.9h4.2v22.2h-3.1l-11.5-15.2h-0.1v14.8h-4.2V4.4z"/>
		</g>
		<path class="st0" d="M31,4.9c-6.3,0-11.5,5.1-11.5,11.5c0,6.4,5.2,11.5,11.5,11.5c6.4,0,11.5-5.2,11.5-11.5
			C42.5,10.1,37.4,4.9,31,4.9z M31,23.5c-3.9,0-7.1-3.2-7.1-7.1s3.2-7.1,7.1-7.1s7.1,3.2,7.1,7.1S34.9,23.5,31,23.5z"/>
		<path class="st1" d="M94.6,4.9c-6.3,0-11.5,5.1-11.5,11.5c0,6.4,5.2,11.5,11.5,11.5c6.4,0,11.5-5.2,11.5-11.5
			C106.1,10.1,100.9,4.9,94.6,4.9z M94.6,23.5c-3.9,0-7.1-3.2-7.1-7.1s3.2-7.1,7.1-7.1s7.1,3.2,7.1,7.1S98.5,23.5,94.6,23.5z"/>
	</g>
	<g>
		<path class="st2" d="M5.6,40.3c-0.6,0-1.2,0-1.7-0.1c-0.6-0.1-1-0.2-1.5-0.4c-0.4-0.2-0.8-0.5-1-0.8c-0.2-0.4-0.4-0.8-0.4-1.4
			c0,0,0-0.1,0-0.1c0,0,0-0.1,0-0.1h1.4c0,0,0,0.1,0,0.1c0,0.1,0,0.1,0,0.2c0,0.3,0.1,0.6,0.4,0.8c0.3,0.2,0.6,0.4,1.1,0.5
			c0.5,0.1,1.1,0.2,1.7,0.2c0.3,0,0.6,0,0.9,0c0.3,0,0.6-0.1,0.8-0.1C7.6,39,7.8,38.9,8,38.8c0.2-0.1,0.4-0.2,0.5-0.4
			s0.2-0.3,0.2-0.5c0-0.3-0.1-0.5-0.3-0.7c-0.2-0.2-0.5-0.3-0.8-0.4s-0.7-0.2-1.2-0.3c-0.4-0.1-0.9-0.1-1.4-0.2
			c-0.5-0.1-0.9-0.2-1.3-0.3c-0.4-0.1-0.8-0.3-1.2-0.4c-0.4-0.2-0.6-0.4-0.8-0.7c-0.2-0.3-0.3-0.6-0.3-1.1c0-0.3,0.1-0.7,0.3-0.9
			c0.2-0.3,0.4-0.5,0.8-0.8s0.8-0.4,1.3-0.5s1.2-0.2,1.9-0.2c0.8,0,1.4,0.1,1.9,0.2c0.5,0.1,0.9,0.3,1.3,0.5
			c0.3,0.2,0.5,0.5,0.7,0.8c0.1,0.3,0.2,0.6,0.2,0.9V34H8.4v-0.2c0-0.2-0.1-0.4-0.3-0.6c-0.2-0.2-0.5-0.3-0.9-0.4
			c-0.4-0.1-0.9-0.2-1.4-0.2c-0.7,0-1.2,0-1.7,0.1c-0.4,0.1-0.8,0.2-1,0.4c-0.2,0.2-0.3,0.4-0.3,0.6c0,0.2,0.1,0.4,0.3,0.6
			c0.2,0.2,0.5,0.3,0.8,0.4c0.4,0.1,0.7,0.2,1.2,0.2c0.4,0.1,0.9,0.1,1.3,0.2c0.5,0.1,0.9,0.2,1.4,0.3c0.4,0.1,0.8,0.3,1.2,0.4
			c0.3,0.2,0.6,0.4,0.8,0.7c0.2,0.3,0.3,0.6,0.3,1.1c0,0.7-0.2,1.2-0.6,1.6S8.6,39.9,8,40.1C7.3,40.3,6.5,40.3,5.6,40.3z"/>
		<path class="st2" d="M17.3,40.3c-1.1,0-2.1-0.2-2.9-0.5c-0.8-0.3-1.4-0.8-1.9-1.5s-0.7-1.5-0.7-2.4c0-1,0.2-1.8,0.7-2.4
			c0.4-0.7,1.1-1.2,1.9-1.5c0.8-0.3,1.8-0.5,2.9-0.5c1.1,0,2.1,0.2,2.9,0.5c0.8,0.3,1.4,0.8,1.9,1.5c0.4,0.7,0.7,1.5,0.7,2.4
			c0,1-0.2,1.8-0.7,2.4s-1.1,1.2-1.9,1.5C19.4,40.2,18.4,40.3,17.3,40.3z M17.3,39.2c0.6,0,1.1-0.1,1.6-0.2s0.9-0.3,1.3-0.6
			c0.4-0.3,0.7-0.6,0.9-1c0.2-0.4,0.3-0.9,0.3-1.4v-0.3c0-0.6-0.1-1-0.3-1.4c-0.2-0.4-0.5-0.7-0.9-1c-0.4-0.3-0.8-0.4-1.3-0.6
			c-0.5-0.1-1-0.2-1.6-0.2c-0.6,0-1.1,0.1-1.6,0.2c-0.5,0.1-0.9,0.3-1.3,0.6c-0.4,0.3-0.7,0.6-0.9,1c-0.2,0.4-0.3,0.9-0.3,1.4V36
			c0,0.6,0.1,1,0.3,1.4s0.5,0.7,0.9,1s0.8,0.4,1.3,0.6C16.2,39.1,16.7,39.2,17.3,39.2z"/>
		<path class="st2" d="M25.1,40.2v-8.6h1.4V39h5.4v1.2H25.1z"/>
		<path class="st2" d="M32.7,40.2l4.4-8.6h1.6l4.4,8.6h-1.5l-1-2h-5.4l-1,2H32.7z M35.7,37H40l-1.3-2.5c-0.1-0.1-0.1-0.2-0.2-0.4
			c-0.1-0.2-0.2-0.3-0.2-0.5c-0.1-0.2-0.2-0.3-0.2-0.5c-0.1-0.1-0.1-0.2-0.2-0.3h-0.1c-0.1,0.2-0.2,0.4-0.3,0.6
			c-0.1,0.2-0.2,0.4-0.3,0.6c-0.1,0.2-0.2,0.4-0.2,0.5L35.7,37z"/>
		<path class="st2" d="M44.8,40.2v-8.6h6.5c0.6,0,1,0.1,1.4,0.3c0.4,0.2,0.7,0.5,0.9,0.9c0.2,0.4,0.3,0.8,0.3,1.3
			c0,0.5-0.1,1-0.4,1.5c-0.3,0.4-0.7,0.8-1.2,1l1.9,3.6h-1.5l-1.7-3.4h-4.7v3.4H44.8z M46.2,35.7H51c0.5,0,0.9-0.1,1.1-0.4
			c0.3-0.3,0.4-0.6,0.4-1.1c0-0.3-0.1-0.5-0.2-0.8S52,33,51.8,32.9c-0.2-0.1-0.5-0.2-0.8-0.2h-4.8V35.7z"/>
		<path class="st2" d="M60.3,40.2v-8.6h8.5v1.2h-7.1v2.5h6.4v1.2h-6.4V39h7.2v1.2H60.3z"/>
		<path class="st2" d="M71.3,40.2v-8.6h1.3l5.4,5.5c0.1,0.1,0.2,0.2,0.3,0.3c0.1,0.1,0.3,0.3,0.4,0.4c0.1,0.1,0.2,0.3,0.3,0.4h0.1
			c0-0.2,0-0.4,0-0.6c0-0.2,0-0.5,0-0.6v-5.4h1.3v8.6h-1.3l-5.4-5.5c-0.2-0.2-0.4-0.4-0.6-0.6c-0.2-0.2-0.4-0.4-0.5-0.5h-0.1
			c0,0.1,0,0.3,0,0.6c0,0.3,0,0.5,0,0.8v5.3H71.3z"/>
		<path class="st2" d="M83.1,40.2v-8.6h8.5v1.2h-7.1v2.5h6.4v1.2h-6.4V39h7.2v1.2H83.1z"/>
		<path class="st2" d="M94,40.2v-8.6h6.5c0.6,0,1,0.1,1.4,0.3c0.4,0.2,0.7,0.5,0.9,0.9c0.2,0.4,0.3,0.8,0.3,1.3c0,0.5-0.1,1-0.4,1.5
			c-0.3,0.4-0.7,0.8-1.2,1l1.9,3.6h-1.5l-1.7-3.4h-4.7v3.4H94z M95.4,35.7h4.8c0.5,0,0.9-0.1,1.1-0.4c0.3-0.3,0.4-0.6,0.4-1.1
			c0-0.3-0.1-0.5-0.2-0.8c-0.1-0.2-0.3-0.4-0.5-0.5c-0.2-0.1-0.5-0.2-0.8-0.2h-4.8V35.7z"/>
		<path class="st2" d="M110.2,40.3c-1.7,0-3-0.4-3.9-1.1c-0.9-0.7-1.3-1.9-1.3-3.4c0-1,0.2-1.8,0.7-2.5c0.4-0.7,1.1-1.2,1.9-1.5
			c0.8-0.3,1.8-0.5,2.9-0.5c0.8,0,1.5,0.1,2.1,0.2c0.6,0.1,1.1,0.3,1.6,0.6c0.4,0.3,0.8,0.6,1,1c0.2,0.4,0.3,0.9,0.3,1.4h-1.3
			c0-0.4-0.1-0.7-0.3-1c-0.2-0.3-0.5-0.5-0.8-0.6c-0.3-0.1-0.7-0.2-1.2-0.3c-0.4-0.1-0.9-0.1-1.4-0.1c-0.6,0-1.1,0.1-1.6,0.2
			c-0.5,0.1-0.9,0.3-1.3,0.5c-0.4,0.3-0.7,0.6-0.9,1c-0.2,0.4-0.3,0.9-0.3,1.5V36c0,0.8,0.2,1.4,0.5,1.8c0.3,0.5,0.8,0.8,1.4,1
			c0.6,0.2,1.3,0.3,2,0.3c1,0,1.7-0.1,2.3-0.3c0.6-0.2,1-0.5,1.2-0.8c0.3-0.4,0.4-0.8,0.4-1.2v-0.2h-3.9v-1.1h5.2v4.6h-0.9l-0.2-1.3
			c-0.3,0.3-0.7,0.6-1.1,0.8c-0.4,0.2-0.9,0.4-1.5,0.5C111.3,40.3,110.8,40.3,110.2,40.3z"/>
		<path class="st2" d="M121.3,40.2v-3.6l-4.3-5.1h1.7l3.3,3.9h0.2l3.3-3.9h1.6l-4.3,5.1v3.6H121.3z"/>
	</g>
</g>
</svg>
